<svg width="64" height="64" viewBox="0 0 64 64" fill="none" xmlns="http://www.w3.org/2000/svg">
<path d="M57 26.2C57 26.2 54 29 48.9 32.3C47.5 24.2 43.6 14.2 36 2C36 2 33.5 15.1 25.2 27.4C21.6 21.8 20 17.4 20 17.4C-6 43.5 15.6 62 29.2 62C46.6 62 61.9 53.6 57 26.2" fill="#FF9D33"/>
<path d="M46.7 49.4C48.2 46.1 49.3 41.8 49.5 36.4C49.5 36.4 47.4 38.2 43.8 40.5C42.8 35.1 40.1 28.5 34.8 20.3C34.8 20.3 33.1 29 27.3 37.3C24.8 33.6 23.7 30.6 23.7 30.6C19.4 37.4 17.7 42.8 17.6 47.1C15.2 46.2 13.7 45.5 13.7 45.5C17.8 57.7 26.3 60.4 30.1 60.4C36.9 60.4 43.8 58.4 50.6 48.7C50.6 48.6 49.1 49 46.7 49.4" fill="#FFCE31"/>
<path d="M21.9 43.9C21.9 43.9 24.7 47.7 26.8 46.8C26.8 46.8 30.8 40.5 36.6 37C36.6 37 35.4 46.6 36.8 48.3C38.6 50.6 43.5 45.8 43.5 45.8C43.5 51.5 37.3 58.6 31.7 58.6C26.3 58.6 18.5 52.4 21.9 43.9" fill="#FFDF85"/>
<path d="M49.8 18.1C51.9 15.1 53.3 11.9 53.3 11.9C56.8 17.7 54.7 21.2 53.2 22.3C51.1 23.9 47.4 21.6 49.8 18.1" fill="#FF9D33"/>
<path d="M11.6 17.1C9.5 13.6 9.3 9.2 9.3 9.2C4.3 16.7 6.2 20.9 7.9 22.1C10.1 23.8 13.9 21.2 11.6 17.1" fill="#FF9D33"/>
<path d="M23.2 9.3C23.5 6.9 22.5 4.5 22.5 4.5C27.2 7.6 27.2 10.2 26.6 11.3C25.7 12.6 22.9 12 23.2 9.3" fill="#FF9D33"/>
<path d="M32.9973 31L32.8007 31.6607V50.8318L32.9973 51.0259L41.9946 45.7657L32.9973 31Z" fill="#343434"/>
<path d="M32.9973 31L24 45.7657L32.9973 51.0259V41.7208V31Z" fill="#8C8C8C"/>
<path d="M32.9973 52.7108L32.8865 52.8444V59.6736L32.9973 59.9935L42 47.4533L32.9973 52.7108Z" fill="#3C3C3B"/>
<path d="M32.9973 59.9934V52.7107L24 47.4532L32.9973 59.9934Z" fill="#8C8C8C"/>
<path d="M32.9973 51.0259L41.9944 45.7657L32.9973 41.7209V51.0259Z" fill="#141414"/>
<path d="M24 45.7657L32.9972 51.0259V41.7208L24 45.7657Z" fill="#393939"/>
</svg>
